<svg width="144" height="48" viewBox="0 0 144 48" fill="none" xmlns="http://www.w3.org/2000/svg">
<g id="Group">
<g id="Group_2">
<g id="&#60;Group&#62;">
<g id="&#60;Group&#62;_2">
<g id="&#60;Group&#62;_3">
<path id="&#60;Path&#62;" d="M30.1185 24.3604C30.1313 23.3588 30.3961 22.3768 30.8883 21.5056C31.3804 20.6345 32.0839 19.9026 32.9333 19.378C32.3937 18.6038 31.6819 17.9666 30.8543 17.5172C30.0268 17.0677 29.1063 16.8183 28.166 16.7887C26.1602 16.5772 24.2157 17.9945 23.1936 17.9945C22.1517 17.9945 20.578 16.8097 18.8834 16.8448C17.7873 16.8803 16.719 17.2006 15.7827 17.7742C14.8464 18.3479 14.074 19.1555 13.5407 20.1182C11.2306 24.1363 12.9537 30.0416 15.1666 33.2895C16.2737 34.8799 17.5677 36.6565 19.2608 36.5935C20.9175 36.5244 21.5363 35.5321 23.5362 35.5321C25.5175 35.5321 26.098 36.5935 27.8255 36.5534C29.6033 36.5244 30.7234 34.9559 31.7917 33.3504C32.5872 32.2172 33.1993 30.9647 33.6054 29.6394C32.5725 29.2006 31.6911 28.4659 31.071 27.5272C30.451 26.5884 30.1197 25.4871 30.1185 24.3604Z" fill="#1A212B"/>
<path id="&#60;Path&#62;_2" d="M26.8557 14.6535C27.825 13.4844 28.3025 11.9818 28.1869 10.4647C26.706 10.621 25.338 11.3321 24.3556 12.4563C23.8752 13.0055 23.5074 13.6444 23.2729 14.3365C23.0385 15.0286 22.9422 15.7604 22.9895 16.4899C23.7302 16.4976 24.463 16.3363 25.1327 16.0182C25.8024 15.7001 26.3915 15.2335 26.8557 14.6535Z" fill="#1A212B"/>
</g>
</g>
<g id="Group_3">
<path id="Vector" d="M51.0614 32.5676H45.4075L44.0498 36.5953H41.655L47.0103 21.6937H49.4983L54.8535 36.5953H52.4179L51.0614 32.5676ZM45.9931 30.709H50.4747L48.2654 24.1723H48.2036L45.9931 30.709Z" fill="#1A212B"/>
<path id="Vector_2" d="M66.4189 31.1635C66.4189 34.5397 64.6202 36.7088 61.9059 36.7088C61.2183 36.7449 60.5345 36.5858 59.9327 36.2497C59.3309 35.9135 58.8356 35.4139 58.5033 34.808H58.452V40.1893H56.2322V25.7307H58.3808V27.5377H58.4217C58.7692 26.9347 59.2729 26.4377 59.8793 26.0995C60.4856 25.7613 61.1719 25.5945 61.8651 25.617C64.6097 25.617 66.4189 27.7967 66.4189 31.1635ZM64.1373 31.1635C64.1373 28.9639 63.0058 27.5178 61.2795 27.5178C59.5834 27.5178 58.4426 28.9943 58.4426 31.1635C58.4426 33.3526 59.5834 34.8186 61.2795 34.8186C63.0059 34.8186 64.1373 33.383 64.1373 31.1635Z" fill="#1A212B"/>
<path id="Vector_3" d="M78.3216 31.1635C78.3216 34.5397 76.5229 36.7088 73.8086 36.7088C73.121 36.7449 72.4372 36.5858 71.8354 36.2496C71.2337 35.9135 70.7383 35.4139 70.406 34.808H70.3547V40.1893H68.1349V25.7307H70.2835V27.5377H70.3243C70.6719 26.9347 71.1756 26.4377 71.7819 26.0995C72.3883 25.7613 73.0746 25.5945 73.7677 25.617C76.5124 25.617 78.3216 27.7967 78.3216 31.1635ZM76.04 31.1635C76.04 28.9639 74.9085 27.5178 73.1822 27.5178C71.4862 27.5178 70.3454 28.9943 70.3454 31.1635C70.3454 33.3525 71.4862 34.8186 73.1822 34.8186C74.9086 34.8186 76.04 33.383 76.04 31.1635H76.04Z" fill="#1A212B"/>
<path id="Vector_4" d="M86.1881 32.4434C86.3526 33.9212 87.7815 34.8914 89.7341 34.8914C91.6051 34.8914 92.9512 33.9211 92.9512 32.5887C92.9512 31.432 92.1393 30.7395 90.217 30.2649L88.2947 29.7996C85.571 29.1387 84.3066 27.859 84.3066 25.7824C84.3066 23.2113 86.5369 21.4453 89.7038 21.4453C92.838 21.4453 94.9867 23.2113 95.059 25.7824H92.8182C92.6841 24.2953 91.4604 23.3977 89.6723 23.3977C87.8841 23.3977 86.6605 24.3059 86.6605 25.6277C86.6605 26.6813 87.442 27.3012 89.3538 27.7757L90.988 28.1789C94.0313 28.9019 95.2958 30.1301 95.2958 32.3097C95.2958 35.0976 93.0853 36.8437 89.5696 36.8437C86.2802 36.8437 84.0592 35.1386 83.9158 32.4433L86.1881 32.4434Z" fill="#1A212B"/>
<path id="Vector_5" d="M100.086 23.1606V25.7317H102.143V27.4978H100.086V33.4872C100.086 34.4177 100.498 34.8513 101.402 34.8513C101.646 34.847 101.89 34.8298 102.132 34.7997V36.5552C101.726 36.6314 101.313 36.666 100.899 36.6583C98.7101 36.6583 97.8562 35.8321 97.8562 33.7251V27.4978H96.2838V25.7317H97.8562V23.1606H100.086Z" fill="#1A212B"/>
<path id="Vector_6" d="M103.334 31.1646C103.334 27.7462 105.338 25.5981 108.463 25.5981C111.598 25.5981 113.593 27.7461 113.593 31.1646C113.593 34.5923 111.609 36.731 108.463 36.731C105.318 36.731 103.334 34.5923 103.334 31.1646ZM111.331 31.1646C111.331 28.8196 110.262 27.4356 108.463 27.4356C106.664 27.4356 105.596 28.8302 105.596 31.1646C105.596 33.5188 106.664 34.8923 108.463 34.8923C110.262 34.8923 111.331 33.5188 111.331 31.1646H111.331Z" fill="#1A212B"/>
<path id="Vector_7" d="M115.423 25.7306H117.54V27.5798H117.592C117.735 27.0022 118.072 26.4918 118.545 26.1344C119.019 25.7769 119.601 25.5942 120.193 25.6169C120.449 25.616 120.704 25.6439 120.953 25.7001V27.786C120.63 27.6869 120.293 27.6414 119.956 27.6513C119.633 27.6381 119.312 27.6952 119.014 27.8187C118.715 27.9422 118.447 28.1291 118.227 28.3665C118.007 28.604 117.841 28.8864 117.741 29.1944C117.64 29.5024 117.606 29.8287 117.643 30.1509V36.595H115.423L115.423 25.7306Z" fill="#1A212B"/>
<path id="Vector_8" d="M131.188 33.4052C130.889 35.3774 128.978 36.731 126.531 36.731C123.386 36.731 121.433 34.6134 121.433 31.2161C121.433 27.8083 123.396 25.5981 126.438 25.5981C129.43 25.5981 131.312 27.663 131.312 30.9571V31.7212H123.674V31.856C123.638 32.2558 123.688 32.6586 123.82 33.0376C123.951 33.4166 124.162 33.7632 124.437 34.0542C124.712 34.3453 125.046 34.5742 125.416 34.7258C125.786 34.8773 126.184 34.9481 126.583 34.9333C127.107 34.9827 127.634 34.8606 128.084 34.5853C128.534 34.31 128.883 33.8961 129.08 33.4052L131.188 33.4052ZM123.684 30.1626H129.091C129.111 29.8031 129.056 29.4433 128.931 29.1059C128.806 28.7684 128.613 28.4606 128.364 28.2016C128.115 27.9427 127.815 27.7383 127.484 27.6013C127.153 27.4642 126.796 27.3974 126.438 27.4052C126.077 27.403 125.718 27.4728 125.384 27.6105C125.049 27.7482 124.745 27.951 124.489 28.2074C124.233 28.4638 124.03 28.7685 123.892 29.1041C123.754 29.4397 123.683 29.7994 123.684 30.1626V30.1626Z" fill="#1A212B"/>
</g>
</g>
</g>
<g id="&#60;Group&#62;_4">
<g id="Group_4">
<path id="Vector_9" d="M45.7149 10.4775C46.1803 10.4439 46.6472 10.5146 47.0822 10.6843C47.5171 10.854 47.9091 11.1186 48.2299 11.4589C48.5507 11.7993 48.7923 12.2069 48.9373 12.6524C49.0824 13.098 49.1271 13.5703 49.0685 14.0353C49.0685 16.3228 47.8378 17.6377 45.7149 17.6377H43.1405V10.4775H45.7149ZM44.2475 16.6251H45.5912C45.9238 16.6451 46.2566 16.5903 46.5654 16.4647C46.8742 16.3392 47.1513 16.1461 47.3764 15.8994C47.6016 15.6527 47.7691 15.3587 47.8669 15.0388C47.9647 14.7188 47.9902 14.381 47.9416 14.0499C47.9867 13.7201 47.9586 13.3844 47.8593 13.0668C47.76 12.7492 47.592 12.4576 47.3674 12.2128C47.1428 11.9681 46.867 11.7764 46.5599 11.6513C46.2529 11.5262 45.9221 11.4709 45.5912 11.4893H44.2475V16.6251Z" fill="#1A212B"/>
<path id="Vector_10" d="M50.319 14.9345C50.2852 14.5794 50.3256 14.2211 50.4377 13.8826C50.5498 13.5442 50.7311 13.233 50.9699 12.969C51.2087 12.705 51.4998 12.4941 51.8245 12.3497C52.1492 12.2054 52.5004 12.1309 52.8555 12.1309C53.2106 12.1309 53.5617 12.2054 53.8864 12.3497C54.2111 12.4941 54.5022 12.705 54.7411 12.969C54.9799 13.233 55.1612 13.5442 55.2732 13.8826C55.3853 14.2211 55.4258 14.5794 55.3919 14.9345C55.4264 15.29 55.3864 15.6488 55.2747 15.9878C55.1629 16.3268 54.9817 16.6386 54.7428 16.9031C54.5039 17.1676 54.2126 17.379 53.8876 17.5236C53.5625 17.6682 53.211 17.743 52.8555 17.743C52.5 17.743 52.1484 17.6682 51.8234 17.5236C51.4983 17.379 51.207 17.1676 50.9681 16.9031C50.7292 16.6386 50.5481 16.3268 50.4363 15.9878C50.3245 15.6488 50.2845 15.29 50.319 14.9345ZM54.3001 14.9345C54.3001 13.7632 53.7764 13.0783 52.8572 13.0783C51.9346 13.0783 51.4155 13.7632 51.4155 14.9345C51.4155 16.1152 51.9346 16.7949 52.8572 16.7949C53.7764 16.7949 54.3001 16.1105 54.3001 14.9345H54.3001Z" fill="#1A212B"/>
<path id="Vector_11" d="M62.1351 17.6378H61.034L59.9224 13.6581H59.8384L58.7314 17.6378H57.6408L56.1582 12.2343H57.2349L58.1983 16.3575H58.2777L59.3835 12.2343H60.4018L61.5076 16.3575H61.5916L62.5504 12.2343H63.6119L62.1351 17.6378Z" fill="#1A212B"/>
<path id="Vector_12" d="M64.8589 12.2339H65.8807V13.0923H65.96C66.0946 12.784 66.3215 12.5255 66.6093 12.353C66.897 12.1804 67.2311 12.1023 67.5651 12.1296C67.8268 12.1098 68.0896 12.1495 68.3339 12.2456C68.5783 12.3417 68.798 12.4918 68.9768 12.6848C69.1556 12.8778 69.2889 13.1088 69.3668 13.3606C69.4447 13.6124 69.4652 13.8785 69.4267 14.1393V17.6374H68.3653V14.4071C68.3653 13.5388 67.9897 13.1069 67.2046 13.1069C67.027 13.0986 66.8496 13.129 66.6847 13.196C66.5198 13.263 66.3712 13.365 66.2493 13.4951C66.1273 13.6252 66.0347 13.7802 65.978 13.9495C65.9212 14.1189 65.9015 14.2986 65.9204 14.4763V17.6374H64.8589L64.8589 12.2339Z" fill="#1A212B"/>
<path id="Vector_13" d="M71.1182 10.1249H72.1796V17.6378H71.1182V10.1249Z" fill="#1A212B"/>
<path id="Vector_14" d="M73.6552 14.9328C73.6214 14.5777 73.6618 14.2194 73.7739 13.8809C73.8861 13.5424 74.0674 13.2311 74.3062 12.9672C74.545 12.7032 74.8362 12.4923 75.1609 12.3479C75.4856 12.2036 75.8368 12.129 76.1919 12.129C76.547 12.129 76.8982 12.2036 77.2229 12.3479C77.5477 12.4923 77.8388 12.7032 78.0776 12.9672C78.3165 13.2311 78.4978 13.5424 78.6099 13.8809C78.722 14.2194 78.7625 14.5777 78.7287 14.9328C78.7631 15.2883 78.7231 15.647 78.6113 15.9861C78.4994 16.3251 78.3182 16.6369 78.0793 16.9014C77.8404 17.1659 77.5491 17.3772 77.224 17.5218C76.899 17.6665 76.5474 17.7412 76.1919 17.7412C75.8364 17.7412 75.4848 17.6665 75.1598 17.5218C74.8347 17.3772 74.5434 17.1659 74.3045 16.9014C74.0656 16.6369 73.8844 16.3251 73.7726 15.9861C73.6607 15.647 73.6207 15.2883 73.6552 14.9328ZM77.6363 14.9328C77.6363 13.7615 77.1125 13.0765 76.1934 13.0765C75.2707 13.0765 74.7517 13.7615 74.7517 14.9328C74.7517 16.1135 75.2707 16.7931 76.1934 16.7931C77.1125 16.7931 77.6363 16.1088 77.6363 14.9328H77.6363Z" fill="#1A212B"/>
<path id="Vector_15" d="M79.8462 16.1105C79.8462 15.1379 80.5671 14.5771 81.8467 14.4975L83.3036 14.4131V13.9467C83.3036 13.376 82.928 13.0537 82.2024 13.0537C81.6099 13.0537 81.1993 13.2723 81.0815 13.6543H80.0538C80.1623 12.7262 81.0313 12.1309 82.2514 12.1309C83.5999 12.1309 84.3604 12.8053 84.3604 13.9467V17.6387H83.3386V16.8793H83.2546C83.0841 17.1517 82.8448 17.3738 82.5609 17.5228C82.2771 17.6719 81.959 17.7426 81.639 17.7277C81.4133 17.7513 81.185 17.7271 80.9691 17.6567C80.7532 17.5862 80.5544 17.4711 80.3855 17.3187C80.2166 17.1664 80.0813 16.9801 79.9884 16.7721C79.8955 16.564 79.8471 16.3386 79.8462 16.1105ZM83.3036 15.6488V15.1971L81.9901 15.2814C81.2494 15.3312 80.9135 15.5844 80.9135 16.0607C80.9135 16.5471 81.3334 16.8301 81.9109 16.8301C82.0801 16.8473 82.251 16.8301 82.4134 16.7796C82.5759 16.7291 82.7265 16.6463 82.8565 16.5361C82.9864 16.4259 83.093 16.2905 83.1698 16.1381C83.2466 15.9857 83.2921 15.8193 83.3036 15.6488Z" fill="#1A212B"/>
<path id="Vector_16" d="M85.7554 14.9337C85.7554 13.2263 86.6291 12.1446 87.988 12.1446C88.3241 12.1291 88.6577 12.2099 88.9498 12.3778C89.2419 12.5457 89.4804 12.7936 89.6374 13.0926H89.7167V10.1249H90.7782V17.6378H89.761V16.7841H89.677C89.5079 17.081 89.2611 17.3259 88.9634 17.4921C88.6657 17.6582 88.3283 17.7394 87.988 17.7268C86.6197 17.7269 85.7554 16.6452 85.7554 14.9337ZM86.8519 14.9337C86.8519 16.0798 87.3896 16.7694 88.289 16.7694C89.1836 16.7694 89.7365 16.0698 89.7365 14.9384C89.7365 13.8122 89.1778 13.1026 88.289 13.1026C87.3954 13.1026 86.8518 13.797 86.8518 14.9337H86.8519Z" fill="#1A212B"/>
<path id="Vector_17" d="M95.17 14.9345C95.1361 14.5794 95.1766 14.2211 95.2887 13.8826C95.4008 13.5442 95.582 13.233 95.8208 12.969C96.0597 12.705 96.3508 12.4941 96.6755 12.3497C97.0002 12.2054 97.3514 12.1309 97.7064 12.1309C98.0615 12.1309 98.4127 12.2054 98.7374 12.3497C99.0621 12.4941 99.3532 12.705 99.592 12.969C99.8308 13.233 100.012 13.5442 100.124 13.8826C100.236 14.2211 100.277 14.5794 100.243 14.9345C100.277 15.29 100.237 15.6488 100.126 15.9878C100.014 16.3268 99.8327 16.6386 99.5938 16.9031C99.3549 17.1676 99.0636 17.379 98.7385 17.5236C98.4135 17.6682 98.0619 17.743 97.7064 17.743C97.3509 17.743 96.9994 17.6682 96.6743 17.5236C96.3493 17.379 96.058 17.1676 95.8191 16.9031C95.5802 16.6386 95.399 16.3268 95.2872 15.9878C95.1755 15.6488 95.1355 15.29 95.17 14.9345ZM99.1511 14.9345C99.1511 13.7632 98.6273 13.0783 97.7082 13.0783C96.7855 13.0783 96.2665 13.7632 96.2665 14.9345C96.2665 16.1152 96.7855 16.7949 97.7082 16.7949C98.6274 16.7949 99.1511 16.1105 99.1511 14.9345Z" fill="#1A212B"/>
<path id="Vector_18" d="M101.667 12.2339H102.689V13.0923H102.768C102.903 12.784 103.13 12.5255 103.417 12.353C103.705 12.1804 104.039 12.1023 104.373 12.1296C104.635 12.1098 104.898 12.1495 105.142 12.2456C105.387 12.3417 105.606 12.4918 105.785 12.6848C105.964 12.8778 106.097 13.1088 106.175 13.3606C106.253 13.6124 106.273 13.8785 106.235 14.1393V17.6374H105.173V14.4071C105.173 13.5388 104.798 13.1069 104.013 13.1069C103.835 13.0986 103.658 13.129 103.493 13.196C103.328 13.263 103.179 13.365 103.057 13.4951C102.936 13.6252 102.843 13.7802 102.786 13.9495C102.729 14.1189 102.71 14.2986 102.729 14.4763V17.6374H101.667V12.2339Z" fill="#1A212B"/>
<path id="Vector_19" d="M112.233 10.8889V12.2588H113.398V13.1571H112.233V15.9356C112.233 16.5016 112.465 16.7495 112.993 16.7495C113.129 16.749 113.264 16.7408 113.398 16.7249V17.6131C113.208 17.6474 113.014 17.6656 112.821 17.6676C111.64 17.6676 111.17 17.2504 111.17 16.2086V13.157H110.316V12.2588H111.17V10.8889H112.233Z" fill="#1A212B"/>
<path id="Vector_20" d="M114.848 10.1249H115.9V13.1026H115.984C116.125 12.7914 116.359 12.5315 116.652 12.3583C116.946 12.1851 117.285 12.107 117.624 12.1347C117.885 12.1204 118.145 12.1641 118.386 12.2625C118.628 12.361 118.845 12.5118 119.022 12.7042C119.199 12.8966 119.331 13.1259 119.41 13.3756C119.489 13.6254 119.511 13.8895 119.477 14.1491V17.6378H118.414V14.4122C118.414 13.5491 118.014 13.112 117.264 13.112C117.081 13.0969 116.898 13.1221 116.726 13.1858C116.555 13.2495 116.399 13.3501 116.27 13.4806C116.141 13.611 116.042 13.7683 115.979 13.9412C115.917 14.1142 115.893 14.2987 115.91 14.4819V17.6378H114.848L114.848 10.1249Z" fill="#1A212B"/>
<path id="Vector_21" d="M125.666 16.1779C125.522 16.6718 125.209 17.099 124.783 17.3848C124.357 17.6705 123.845 17.7967 123.335 17.7412C122.981 17.7506 122.629 17.6824 122.303 17.5414C121.978 17.4004 121.687 17.1899 121.45 16.9245C121.214 16.6591 121.038 16.3453 120.934 16.0047C120.831 15.6641 120.802 15.3049 120.851 14.9522C120.804 14.5983 120.833 14.2384 120.936 13.8968C121.039 13.5552 121.214 13.2399 121.45 12.9722C121.685 12.7045 121.974 12.4907 122.299 12.3452C122.623 12.1998 122.975 12.1261 123.331 12.1291C124.827 12.1291 125.73 13.1563 125.73 14.8531V15.2252H121.932V15.285C121.915 15.4833 121.94 15.6829 122.005 15.871C122.07 16.0591 122.173 16.2315 122.308 16.3773C122.442 16.523 122.606 16.6389 122.788 16.7173C122.97 16.7958 123.166 16.8352 123.365 16.833C123.618 16.8636 123.876 16.8177 124.104 16.701C124.331 16.5844 124.52 16.4023 124.644 16.1779L125.666 16.1779ZM121.932 14.4365H124.649C124.662 14.2552 124.638 14.073 124.577 13.9018C124.516 13.7305 124.42 13.5739 124.295 13.4421C124.171 13.3103 124.02 13.2061 123.853 13.1363C123.686 13.0665 123.506 13.0326 123.325 13.0367C123.141 13.0344 122.959 13.0691 122.789 13.1386C122.619 13.2081 122.464 13.3112 122.335 13.4416C122.205 13.5721 122.102 13.7273 122.033 13.8982C121.964 14.0691 121.93 14.2521 121.932 14.4365H121.932Z" fill="#1A212B"/>
</g>
</g>
</g>
</svg>
